@startuml
'https://plantuml.com/class-diagram

!theme toy

skinparam shadowing false
skinparam backgroundColor white
skinparam defaultFontName Cica

class 選択肢 {
    順序: int
}

class 質問 {
    順序: int
}

interface Comparable {
--
compareTo(other: T): int
}

選択肢 ..|> Comparable
質問 ..|> Comparable


@enduml